<?xml version="1.0" encoding="UTF-8"?>
<svg id="Layer_2" data-name="Layer 2" xmlns="http://www.w3.org/2000/svg" viewBox="0 0 16 16">
  <defs>
    <style>
      .cls-1 {
        fill: #fff;
      }
    </style>
  </defs>
  <g id="DESIGNED_BY_FREEPIK" data-name="DESIGNED BY FREEPIK">
    <g>
      <rect class="cls-1" width="16" height="16" rx="2" ry="2"/>
      <g>
        <path d="m10.21,8.17h-.39v-.28h1.34s0,.74,0,.78h-.78v-.15s0,0,0,0c-.06.08-.15.12-.24.15-.07.02-.15.03-.22.04-.13.01-.26.01-.39,0-.18-.01-.37-.04-.54-.1-.11-.04-.21-.1-.29-.18-.09-.09-.14-.2-.15-.33,0-.08,0-.15,0-.23.02-.12.08-.23.17-.31.08-.07.18-.12.28-.15.11-.04.23-.06.34-.08.28-.04.55-.04.83-.03.18,0,.36.03.53.08.09.02.17.06.25.1.04.02.08.04.11.07.03.03.06.06.06.11.01.07-.01.12-.07.15-.05.03-.1.04-.15.04-.15.02-.29.02-.44,0-.11,0-.21-.03-.31-.06-.13-.03-.25-.03-.38,0-.03,0-.05.01-.08.03-.06.03-.1.08-.1.15,0,.03,0,.06,0,.09,0,.06.04.1.09.13.03.02.07.03.11.03.12.02.24.02.36,0,.03,0,.06-.01.08-.03,0,0,0,0,0,0Z"/>
        <path d="m5.05,8.17h.77s0,.47,0,.5h-2.31v-.38c.25-.15.5-.3.76-.45,0,0,0,0,0,0h-.75v-.5h2.3s0,.02,0,.03c0,.11,0,.21,0,.32,0,.02,0,.03-.02.04-.24.14-.48.28-.72.42,0,0-.02.01-.03.02,0,0,0,0,0,0Z"/>
        <path d="m7.44,7.33h.98s0,.01,0,.02c0,.22,0,.45,0,.67,0,.09-.02.19-.06.27-.05.1-.12.17-.21.23-.1.06-.21.1-.32.13-.12.03-.25.05-.38.05-.15.01-.3.01-.46,0-.18,0-.36-.03-.53-.08-.08-.03-.16-.06-.24-.1-.16-.1-.25-.24-.27-.43,0-.03,0-.06,0-.09,0-.22,0-.43,0-.65,0,0,0-.02,0-.02.02,0,.94,0,1,0,0,0,0,.02,0,.03,0,.21,0,.43,0,.64,0,.02,0,.04,0,.05,0,.05.03.08.08.1.03.01.06.02.08.02.07,0,.13,0,.2,0,.02,0,.04-.01.05-.02.04-.02.06-.05.07-.09,0-.02,0-.04,0-.06,0-.21,0-.42,0-.63v-.04Z"/>
        <path d="m12.27,8.67h-1.05c.2-.45.41-.89.61-1.34h1.48c.2.45.41.89.61,1.34h-1.08c-.02-.05-.03-.1-.05-.16h-.48c-.02.05-.03.1-.05.16Zm.39-.59s-.08-.28-.1-.29c-.02.05-.09.27-.09.29h.19Z"/>
        <path d="m3.41,7.33v.5h-.7v.84h-1v-.84h-.7v-.5s0,0,0,0,0,0,0,0c0,0,0,0,.01,0,.8,0,1.59,0,2.39,0,0,0,0,0,0,0Z"/>
        <path d="m14,8.67v-1.34h1v1.34h-1Z"/>
      </g>
    </g>
  </g>
</svg>