<svg width="32" height="33" viewBox="0 0 32 33" fill="none" xmlns="http://www.w3.org/2000/svg">
<path d="M22.6666 3.16669H9.33329C5.65139 3.16669 2.66663 6.15146 2.66663 9.83335V23.1667C2.66663 26.8486 5.65139 29.8334 9.33329 29.8334H22.6666C26.3485 29.8334 29.3333 26.8486 29.3333 23.1667V9.83335C29.3333 6.15146 26.3485 3.16669 22.6666 3.16669Z" stroke="white" stroke-width="2" stroke-linecap="round" stroke-linejoin="round"/>
<path d="M21.3334 15.66C21.4979 16.7696 21.3084 17.9029 20.7917 18.8987C20.275 19.8944 19.4575 20.7019 18.4555 21.2062C17.4535 21.7106 16.3179 21.8861 15.2104 21.7079C14.1029 21.5297 13.0797 21.0068 12.2865 20.2135C11.4932 19.4203 10.9703 18.3971 10.7921 17.2896C10.6139 16.182 10.7894 15.0465 11.2938 14.0445C11.7981 13.0424 12.6056 12.225 13.6013 11.7083C14.5971 11.1916 15.7304 11.0021 16.84 11.1666C17.9719 11.3345 19.0198 11.8619 19.8289 12.6711C20.6381 13.4802 21.1655 14.5281 21.3334 15.66Z" stroke="white" stroke-width="2" stroke-linecap="round" stroke-linejoin="round"/>
<path d="M23.3334 9.16669H23.3467" stroke="white" stroke-width="2" stroke-linecap="round" stroke-linejoin="round"/>
</svg>
